# Apple ModelIO OBJ File: disc
mtllib disc.mtl
g Cylinder.001_Cylinder.011_None
v 0.081763 0.291553 -0.450238
v 0.081763 0.309505 -0.450238
v 0.203145 0.309505 -0.438283
v 0.203145 0.291553 -0.438283
v 0.319862 0.309505 -0.402878
v 0.319862 0.291553 -0.402878
v 0.427429 0.309505 -0.345382
v 0.427429 0.291553 -0.345382
v 0.521712 0.309505 -0.268006
v 0.521712 0.291553 -0.268006
v 0.599088 0.309505 -0.173722
v 0.599088 0.291553 -0.173722
v 0.656584 0.309505 -0.066155
v 0.656584 0.291553 -0.066155
v 0.69199 0.309505 0.050562
v 0.69199 0.291553 0.050562
v 0.703945 0.309505 0.171944
v 0.703945 0.291553 0.171944
v 0.69199 0.309505 0.293325
v 0.69199 0.291553 0.293325
v 0.656584 0.309505 0.410042
v 0.656584 0.291553 0.410042
v 0.599088 0.309505 0.517609
v 0.599088 0.291553 0.517609
v 0.521712 0.309505 0.611893
v 0.521712 0.291553 0.611893
v 0.427429 0.309505 0.689269
v 0.427429 0.291553 0.689269
v 0.319862 0.309505 0.746765
v 0.319862 0.291553 0.746765
v 0.203145 0.309505 0.782171
v 0.203145 0.291553 0.782171
v 0.081763 0.309505 0.794126
v 0.081763 0.291553 0.794126
v -0.039619 0.309505 0.782171
v -0.039619 0.291553 0.782171
v -0.156336 0.309505 0.746765
v -0.156336 0.291553 0.746765
v -0.263903 0.309505 0.689269
v -0.263903 0.291553 0.689269
v -0.358186 0.309505 0.611893
v -0.358186 0.291553 0.611893
v -0.435562 0.309505 0.517609
v -0.435562 0.291553 0.517609
v -0.493058 0.309505 0.410042
v -0.493058 0.291553 0.410042
v -0.528464 0.309505 0.293325
v -0.528464 0.291553 0.293325
v -0.540419 0.309505 0.171944
v -0.540419 0.291553 0.171944
v -0.528464 0.309505 0.050562
v -0.528464 0.291553 0.050562
v -0.493058 0.309505 -0.066155
v -0.493058 0.291553 -0.066155
v -0.435563 0.309505 -0.173722
v -0.435563 0.291553 -0.173722
v -0.358186 0.309505 -0.268005
v -0.358186 0.291553 -0.268005
v -0.263903 0.309505 -0.345382
v -0.263903 0.291553 -0.345382
v -0.156336 0.309505 -0.402878
v -0.156336 0.291553 -0.402878
v -0.039619 0.309505 -0.438283
v -0.039619 0.291553 -0.438283
v 0.081763 0.309505 0.095964
v 0.096586 0.309505 0.097424
v 0.110839 0.309505 0.101748
v 0.123975 0.309505 0.108769
v 0.135488 0.309505 0.118218
v 0.144937 0.309505 0.129732
v 0.151959 0.309505 0.142868
v 0.156282 0.309505 0.157121
v 0.157742 0.309505 0.171944
v 0.156282 0.309505 0.186766
v 0.151959 0.309505 0.20102
v 0.144938 0.309505 0.214155
v 0.135488 0.309505 0.225669
v 0.123975 0.309505 0.235118
v 0.110839 0.309505 0.242139
v 0.096586 0.309505 0.246463
v 0.081763 0.309505 0.247923
v 0.06694 0.309505 0.246463
v 0.052687 0.309505 0.242139
v 0.039551 0.309505 0.235118
v 0.028037 0.309505 0.225669
v 0.018588 0.309505 0.214155
v 0.011567 0.309505 0.20102
v 0.007243 0.309505 0.186766
v 0.005784 0.309505 0.171944
v 0.007243 0.309505 0.157121
v 0.011567 0.309505 0.142867
v 0.018588 0.309505 0.129732
v 0.028037 0.309505 0.118218
v 0.039551 0.309505 0.108769
v 0.052687 0.309505 0.101748
v 0.06694 0.309505 0.097424
v 0.101514 0.291553 0.07265
v 0.081763 0.291553 0.070704
v 0.120506 0.291553 0.078411
v 0.138008 0.291553 0.087766
v 0.15335 0.291553 0.100357
v 0.16594 0.291553 0.115698
v 0.175296 0.291553 0.133201
v 0.181057 0.291553 0.152193
v 0.183002 0.291553 0.171944
v 0.181057 0.291553 0.191694
v 0.175296 0.291553 0.210686
v 0.16594 0.291553 0.228189
v 0.15335 0.291553 0.24353
v 0.138008 0.291553 0.256121
v 0.120506 0.291553 0.265476
v 0.101514 0.291553 0.271238
v 0.081763 0.291553 0.273183
v 0.062012 0.291553 0.271238
v 0.04302 0.291553 0.265476
v 0.025517 0.291553 0.256121
v 0.010176 0.291553 0.24353
v -0.002414 0.291553 0.228189
v -0.01177 0.291553 0.210686
v -0.017531 0.291553 0.191694
v -0.019476 0.291553 0.171944
v -0.017531 0.291553 0.152193
v -0.01177 0.291553 0.133201
v -0.002414 0.291553 0.115698
v 0.010176 0.291553 0.100357
v 0.025517 0.291553 0.087766
v 0.04302 0.291553 0.078411
v 0.062012 0.291553 0.07265
vn 0.098 0 -0.9952
vn 0.2903 0 -0.9569
vn 0.4714 0 -0.8819
vn 0.6344 0 -0.773
vn 0.773 0 -0.6344
vn 0.8819 0 -0.4714
vn 0.9569 0 -0.2903
vn 0.9952 0 -0.098
vn 0.9952 0 0.098
vn 0.9569 0 0.2903
vn 0.8819 0 0.4714
vn 0.773 0 0.6344
vn 0.6344 0 0.773
vn 0.4714 0 0.8819
vn 0.2903 0 0.9569
vn 0.098 0 0.9952
vn -0.098 0 0.9952
vn -0.2903 0 0.9569
vn -0.4714 0 0.8819
vn -0.6344 0 0.773
vn -0.773 0 0.6344
vn -0.8819 0 0.4714
vn -0.9569 0 0.2903
vn -0.9952 0 0.098
vn -0.9952 0 -0.098
vn -0.9569 0 -0.2903
vn -0.8819 0 -0.4714
vn -0.773 0 -0.6344
vn -0.6344 0 -0.773
vn -0.4714 0 -0.8819
vn -0.2903 0 -0.9569
vn -0.098 0 -0.9952
vn 0 1 0
vn -0 -1 0
vt 1 0.5
vt 1 1
vt 0.96875 1
vt 0.96875 0.5
vt 0.9375 1
vt 0.9375 0.5
vt 0.90625 1
vt 0.90625 0.5
vt 0.875 1
vt 0.875 0.5
vt 0.84375 1
vt 0.84375 0.5
vt 0.8125 1
vt 0.8125 0.5
vt 0.78125 1
vt 0.78125 0.5
vt 0.75 1
vt 0.75 0.5
vt 0.71875 1
vt 0.71875 0.5
vt 0.6875 1
vt 0.6875 0.5
vt 0.65625 1
vt 0.65625 0.5
vt 0.625 1
vt 0.625 0.5
vt 0.59375 1
vt 0.59375 0.5
vt 0.5625 1
vt 0.5625 0.5
vt 0.53125 1
vt 0.53125 0.5
vt 0.5 1
vt 0.5 0.5
vt 0.46875 1
vt 0.46875 0.5
vt 0.4375 1
vt 0.4375 0.5
vt 0.40625 1
vt 0.40625 0.5
vt 0.375 1
vt 0.375 0.5
vt 0.34375 1
vt 0.34375 0.5
vt 0.3125 1
vt 0.3125 0.5
vt 0.28125 1
vt 0.28125 0.5
vt 0.25 1
vt 0.25 0.5
vt 0.21875 1
vt 0.21875 0.5
vt 0.1875 1
vt 0.1875 0.5
vt 0.15625 1
vt 0.15625 0.5
vt 0.125 1
vt 0.125 0.5
vt 0.09375 1
vt 0.09375 0.5
vt 0.0625 1
vt 0.0625 0.5
vt 0.03125 1
vt 0.03125 0.5
vt 0 1
vt 0 0.5
vt 0.25 0.279308
vt 0.255718 0.278745
vt 0.296822 0.485388
vt 0.25 0.49
vt 0.261216 0.277077
vt 0.341844 0.471731
vt 0.266283 0.274369
vt 0.383337 0.449553
vt 0.270724 0.270724
vt 0.419706 0.419706
vt 0.274369 0.266283
vt 0.449553 0.383337
vt 0.277077 0.261216
vt 0.471731 0.341844
vt 0.278745 0.255718
vt 0.485388 0.296822
vt 0.279308 0.25
vt 0.49 0.25
vt 0.278745 0.244282
vt 0.485388 0.203178
vt 0.277077 0.238784
vt 0.471731 0.158156
vt 0.274369 0.233717
vt 0.449553 0.116663
vt 0.270724 0.229276
vt 0.419706 0.080294
vt 0.266283 0.225631
vt 0.383337 0.050447
vt 0.261216 0.222923
vt 0.341844 0.028269
vt 0.255718 0.221255
vt 0.296822 0.014612
vt 0.25 0.220692
vt 0.25 0.01
vt 0.244282 0.221255
vt 0.203178 0.014612
vt 0.238784 0.222923
vt 0.158156 0.028269
vt 0.233717 0.225631
vt 0.116663 0.050447
vt 0.229276 0.229276
vt 0.080294 0.080294
vt 0.225631 0.233717
vt 0.050447 0.116663
vt 0.222923 0.238784
vt 0.028269 0.158156
vt 0.221255 0.244282
vt 0.014612 0.203178
vt 0.220692 0.25
vt 0.01 0.25
vt 0.221255 0.255718
vt 0.014612 0.296822
vt 0.222923 0.261216
vt 0.028269 0.341844
vt 0.225631 0.266283
vt 0.050447 0.383337
vt 0.229276 0.270724
vt 0.080294 0.419706
vt 0.233717 0.274369
vt 0.116663 0.449553
vt 0.238784 0.277077
vt 0.158156 0.471731
vt 0.244282 0.278745
vt 0.203178 0.485388
vt 0.763351 0.317121
vt 0.75 0.318436
vt 0.796822 0.485388
vt 0.75 0.49
vt 0.776189 0.313226
vt 0.841844 0.471731
vt 0.788021 0.306902
vt 0.883337 0.449553
vt 0.798391 0.298391
vt 0.919706 0.419706
vt 0.806902 0.288021
vt 0.949553 0.383337
vt 0.813226 0.276189
vt 0.971731 0.341844
vt 0.817121 0.263351
vt 0.985388 0.296822
vt 0.818436 0.25
vt 0.99 0.25
vt 0.817121 0.236649
vt 0.985388 0.203178
vt 0.813226 0.223811
vt 0.971731 0.158156
vt 0.806902 0.211979
vt 0.949553 0.116663
vt 0.798391 0.201609
vt 0.919706 0.080294
vt 0.788021 0.193098
vt 0.883337 0.050447
vt 0.776189 0.186774
vt 0.841844 0.028269
vt 0.763351 0.182879
vt 0.796822 0.014612
vt 0.75 0.181564
vt 0.75 0.01
vt 0.736649 0.182879
vt 0.703178 0.014612
vt 0.723811 0.186774
vt 0.658156 0.028269
vt 0.711979 0.193098
vt 0.616663 0.050447
vt 0.701609 0.201609
vt 0.580294 0.080294
vt 0.693098 0.211979
vt 0.550447 0.116663
vt 0.686774 0.223811
vt 0.528269 0.158156
vt 0.682879 0.236649
vt 0.514612 0.203178
vt 0.681564 0.25
vt 0.51 0.25
vt 0.682879 0.263351
vt 0.514612 0.296822
vt 0.686774 0.276189
vt 0.528269 0.341844
vt 0.693098 0.288021
vt 0.550447 0.383337
vt 0.701609 0.298391
vt 0.580294 0.419706
vt 0.711979 0.306902
vt 0.616663 0.449553
vt 0.723811 0.313226
vt 0.658156 0.471731
vt 0.736649 0.317121
vt 0.703178 0.485388
usemtl None
f 1/1/1 2/2/1 3/3/1
f 1/1/1 3/3/1 4/4/1
f 4/4/2 3/3/2 5/5/2
f 4/4/2 5/5/2 6/6/2
f 6/6/3 5/5/3 7/7/3
f 6/6/3 7/7/3 8/8/3
f 8/8/4 7/7/4 9/9/4
f 8/8/4 9/9/4 10/10/4
f 10/10/5 9/9/5 11/11/5
f 10/10/5 11/11/5 12/12/5
f 12/12/6 11/11/6 13/13/6
f 12/12/6 13/13/6 14/14/6
f 14/14/7 13/13/7 15/15/7
f 14/14/7 15/15/7 16/16/7
f 16/16/8 15/15/8 17/17/8
f 16/16/8 17/17/8 18/18/8
f 18/18/9 17/17/9 19/19/9
f 18/18/9 19/19/9 20/20/9
f 20/20/10 19/19/10 21/21/10
f 20/20/10 21/21/10 22/22/10
f 22/22/11 21/21/11 23/23/11
f 22/22/11 23/23/11 24/24/11
f 24/24/12 23/23/12 25/25/12
f 24/24/12 25/25/12 26/26/12
f 26/26/13 25/25/13 27/27/13
f 26/26/13 27/27/13 28/28/13
f 28/28/14 27/27/14 29/29/14
f 28/28/14 29/29/14 30/30/14
f 30/30/15 29/29/15 31/31/15
f 30/30/15 31/31/15 32/32/15
f 32/32/16 31/31/16 33/33/16
f 32/32/16 33/33/16 34/34/16
f 34/34/17 33/33/17 35/35/17
f 34/34/17 35/35/17 36/36/17
f 36/36/18 35/35/18 37/37/18
f 36/36/18 37/37/18 38/38/18
f 38/38/19 37/37/19 39/39/19
f 38/38/19 39/39/19 40/40/19
f 40/40/20 39/39/20 41/41/20
f 40/40/20 41/41/20 42/42/20
f 42/42/21 41/41/21 43/43/21
f 42/42/21 43/43/21 44/44/21
f 44/44/22 43/43/22 45/45/22
f 44/44/22 45/45/22 46/46/22
f 46/46/23 45/45/23 47/47/23
f 46/46/23 47/47/23 48/48/23
f 48/48/24 47/47/24 49/49/24
f 48/48/24 49/49/24 50/50/24
f 50/50/25 49/49/25 51/51/25
f 50/50/25 51/51/25 52/52/25
f 52/52/26 51/51/26 53/53/26
f 52/52/26 53/53/26 54/54/26
f 54/54/27 53/53/27 55/55/27
f 54/54/27 55/55/27 56/56/27
f 56/56/28 55/55/28 57/57/28
f 56/56/28 57/57/28 58/58/28
f 58/58/29 57/57/29 59/59/29
f 58/58/29 59/59/29 60/60/29
f 60/60/30 59/59/30 61/61/30
f 60/60/30 61/61/30 62/62/30
f 62/62/31 61/61/31 63/63/31
f 62/62/31 63/63/31 64/64/31
f 64/64/32 63/63/32 2/65/32
f 64/64/32 2/65/32 1/66/32
f 65/67/33 66/68/33 3/69/33
f 65/67/33 3/69/33 2/70/33
f 66/68/33 67/71/33 5/72/33
f 66/68/33 5/72/33 3/69/33
f 67/71/33 68/73/33 5/72/33
f 68/73/33 7/74/33 5/72/33
f 68/73/33 69/75/33 9/76/33
f 68/73/33 9/76/33 7/74/33
f 69/75/33 70/77/33 11/78/33
f 69/75/33 11/78/33 9/76/33
f 70/77/33 71/79/33 11/78/33
f 71/79/33 13/80/33 11/78/33
f 71/79/33 72/81/33 15/82/33
f 71/79/33 15/82/33 13/80/33
f 72/81/33 73/83/33 17/84/33
f 72/81/33 17/84/33 15/82/33
f 73/83/33 74/85/33 19/86/33
f 73/83/33 19/86/33 17/84/33
f 74/85/33 75/87/33 19/86/33
f 75/87/33 21/88/33 19/86/33
f 75/87/33 76/89/33 23/90/33
f 75/87/33 23/90/33 21/88/33
f 76/89/33 77/91/33 25/92/33
f 76/89/33 25/92/33 23/90/33
f 77/91/33 78/93/33 25/92/33
f 78/93/33 27/94/33 25/92/33
f 78/93/33 79/95/33 29/96/33
f 78/93/33 29/96/33 27/94/33
f 79/95/33 80/97/33 29/96/33
f 80/97/33 31/98/33 29/96/33
f 80/97/33 81/99/33 31/98/33
f 81/99/33 33/100/33 31/98/33
f 81/99/33 82/101/33 35/102/33
f 81/99/33 35/102/33 33/100/33
f 82/101/33 83/103/33 37/104/33
f 82/101/33 37/104/33 35/102/33
f 83/103/33 84/105/33 37/104/33
f 84/105/33 39/106/33 37/104/33
f 84/105/33 85/107/33 39/106/33
f 85/107/33 41/108/33 39/106/33
f 85/107/33 86/109/33 43/110/33
f 85/107/33 43/110/33 41/108/33
f 86/109/33 87/111/33 43/110/33
f 87/111/33 45/112/33 43/110/33
f 87/111/33 88/113/33 47/114/33
f 87/111/33 47/114/33 45/112/33
f 88/113/33 89/115/33 49/116/33
f 88/113/33 49/116/33 47/114/33
f 89/115/33 90/117/33 49/116/33
f 90/117/33 51/118/33 49/116/33
f 90/117/33 91/119/33 53/120/33
f 90/117/33 53/120/33 51/118/33
f 91/119/33 92/121/33 55/122/33
f 91/119/33 55/122/33 53/120/33
f 92/121/33 93/123/33 55/122/33
f 93/123/33 57/124/33 55/122/33
f 93/123/33 94/125/33 59/126/33
f 93/123/33 59/126/33 57/124/33
f 94/125/33 95/127/33 61/128/33
f 94/125/33 61/128/33 59/126/33
f 95/127/33 96/129/33 61/128/33
f 96/129/33 63/130/33 61/128/33
f 96/129/33 65/67/33 63/130/33
f 65/67/33 2/70/33 63/130/33
f 97/131/34 98/132/34 4/133/34
f 98/132/34 1/134/34 4/133/34
f 99/135/34 97/131/34 4/133/34
f 99/135/34 4/133/34 6/136/34
f 100/137/34 99/135/34 6/136/34
f 100/137/34 6/136/34 8/138/34
f 101/139/34 100/137/34 10/140/34
f 100/137/34 8/138/34 10/140/34
f 102/141/34 101/139/34 10/140/34
f 102/141/34 10/140/34 12/142/34
f 103/143/34 102/141/34 12/142/34
f 103/143/34 12/142/34 14/144/34
f 104/145/34 103/143/34 16/146/34
f 103/143/34 14/144/34 16/146/34
f 105/147/34 104/145/34 18/148/34
f 104/145/34 16/146/34 18/148/34
f 106/149/34 105/147/34 18/148/34
f 106/149/34 18/148/34 20/150/34
f 107/151/34 106/149/34 20/150/34
f 107/151/34 20/150/34 22/152/34
f 108/153/34 107/151/34 24/154/34
f 107/151/34 22/152/34 24/154/34
f 109/155/34 108/153/34 26/156/34
f 108/153/34 24/154/34 26/156/34
f 110/157/34 109/155/34 26/156/34
f 110/157/34 26/156/34 28/158/34
f 111/159/34 110/157/34 30/160/34
f 110/157/34 28/158/34 30/160/34
f 112/161/34 111/159/34 30/160/34
f 112/161/34 30/160/34 32/162/34
f 113/163/34 112/161/34 34/164/34
f 112/161/34 32/162/34 34/164/34
f 114/165/34 113/163/34 34/164/34
f 114/165/34 34/164/34 36/166/34
f 115/167/34 114/165/34 38/168/34
f 114/165/34 36/166/34 38/168/34
f 116/169/34 115/167/34 38/168/34
f 116/169/34 38/168/34 40/170/34
f 117/171/34 116/169/34 42/172/34
f 116/169/34 40/170/34 42/172/34
f 118/173/34 117/171/34 42/172/34
f 118/173/34 42/172/34 44/174/34
f 119/175/34 118/173/34 44/174/34
f 119/175/34 44/174/34 46/176/34
f 120/177/34 119/175/34 48/178/34
f 119/175/34 46/176/34 48/178/34
f 121/179/34 120/177/34 50/180/34
f 120/177/34 48/178/34 50/180/34
f 122/181/34 121/179/34 50/180/34
f 122/181/34 50/180/34 52/182/34
f 123/183/34 122/181/34 52/182/34
f 123/183/34 52/182/34 54/184/34
f 124/185/34 123/183/34 56/186/34
f 123/183/34 54/184/34 56/186/34
f 125/187/34 124/185/34 56/186/34
f 125/187/34 56/186/34 58/188/34
f 126/189/34 125/187/34 58/188/34
f 126/189/34 58/188/34 60/190/34
f 127/191/34 126/189/34 62/192/34
f 126/189/34 60/190/34 62/192/34
f 128/193/34 127/191/34 64/194/34
f 127/191/34 62/192/34 64/194/34
f 98/132/34 128/193/34 64/194/34
f 98/132/34 64/194/34 1/134/34
s off
